<?xml version="1.0" encoding="utf-8"?>
<!-- Generator: Adobe Illustrator 24.0.2, SVG Export Plug-In . SVG Version: 6.00 Build 0)  -->
<svg version="1.1" id="Capa_1" xmlns="http://www.w3.org/2000/svg" xmlns:xlink="http://www.w3.org/1999/xlink" x="0px" y="0px"
	 viewBox="0 0 300 300" style="enable-background:new 0 0 300 300;" xml:space="preserve">
<style type="text/css">
	.st0{fill:#FFFF00;}
	.st1{fill:#FFFFFF;}
	.st2{fill:#00FFFF;}
</style>
<g>
	<path class="st0" d="M183.43,115.34c-2.75,0-4.98,2.23-4.98,4.98c0,2.75,2.23,4.98,4.98,4.98c2.75,0,4.98-2.23,4.98-4.98
		C188.42,117.57,186.18,115.34,183.43,115.34z"/>
	<path class="st1" d="M161.28,121.73c-11.54,0-20.93,9.39-20.93,20.93c0,11.54,9.39,20.93,20.93,20.93
		c11.54,0,20.93-9.39,20.93-20.93C182.21,131.12,172.82,121.73,161.28,121.73z M161.28,156.07c-7.39,0-13.41-6.01-13.41-13.41
		s6.02-13.41,13.41-13.41c7.39,0,13.41,6.01,13.41,13.41S168.67,156.07,161.28,156.07z"/>
	<path class="st2" d="M177.9,185.16h-33.94c-14.08,0-25.53-11.45-25.53-25.53v-33.94c0-14.08,11.45-25.53,25.53-25.53h33.94
		c14.08,0,25.53,11.45,25.53,25.53v33.94C203.43,173.71,191.97,185.16,177.9,185.16z M143.96,108.16c-9.67,0-17.53,7.87-17.53,17.53
		v33.94c0,9.67,7.87,17.53,17.53,17.53h33.94c9.67,0,17.54-7.87,17.54-17.53v-33.94c0-9.67-7.87-17.53-17.54-17.53H143.96z"/>
</g>
</svg>
