<?xml version="1.0" encoding="utf-8"?>
<!-- Generator: Adobe Illustrator 24.0.2, SVG Export Plug-In . SVG Version: 6.00 Build 0)  -->
<svg version="1.1" id="Capa_1" xmlns="http://www.w3.org/2000/svg" xmlns:xlink="http://www.w3.org/1999/xlink" x="0px" y="0px"
	 viewBox="0 0 300 300" style="enable-background:new 0 0 300 300;" xml:space="preserve">
<style type="text/css">
	.st0{fill:#00FFFF;}
	.st1{fill:#FFFF00;}
</style>
<path class="st0" d="M178.18,114.35c-2.54,1.31-5.35,2.1-8.09,2.63c1.3-0.25,3.21-2.93,3.98-4.02c1.17-1.65,2.14-3.54,2.69-5.58
	c0.07-0.16,0.12-0.36-0.02-0.48c-0.18-0.08-0.29-0.04-0.43,0.04c-3.06,1.87-6.22,3.22-9.59,4.18c-0.28,0.08-0.49,0-0.66-0.2
	c-0.28-0.36-0.54-0.7-0.84-0.98c-1.42-1.37-2.93-2.45-4.65-3.24c-2.25-1.04-4.71-1.49-7.13-1.31c-2.36,0.17-4.67,0.93-6.76,2.18
	c-2.1,1.25-3.97,2.98-5.45,5.07c-1.54,2.17-2.68,4.72-3.26,7.43c-0.56,2.61-0.52,5.2-0.17,7.85c0.05,0.44,0.02,0.5-0.33,0.44
	c-13.17-2.23-24.1-7.6-32.96-19.11c-0.38-0.5-0.59-0.5-0.91,0.04c-3.88,6.62-2,17.26,2.85,22.49c0.65,0.7,1.31,1.39,2.03,2.03
	c-0.26,0.06-3.49-0.34-6.36-2.03c-0.38-0.28-0.58-0.12-0.61,0.38c-0.04,0.72,0.02,1.37,0.1,2.15c0.74,6.71,4.83,12.92,10.42,15.35
	c0.66,0.32,1.4,0.6,2.11,0.74c-1.27,0.32-2.59,0.55-6.24,0.22c-0.45-0.1-0.63,0.16-0.45,0.66c2.74,8.52,8.67,11.06,13.11,12.5
	c0.59,0.12,1.19,0.12,1.78,0.28c-0.04,0.06-0.07,0.06-0.11,0.12c-1.47,2.56-6.57,4.46-8.95,5.4c-4.32,1.72-9.03,2.49-13.59,1.98
	c-0.73-0.12-0.88-0.11-1.08,0c-0.2,0.14-0.03,0.34,0.21,0.56c0.93,0.7,1.87,1.31,2.83,1.91c2.9,1.75,5.93,3.15,9.09,4.14
	c16.33,5.14,34.73,1.36,46.99-12.51c9.63-10.9,13-25.93,13-40.97c0-0.59,0.61-0.91,0.97-1.23c2.51-2.14,4.53-4.71,6.39-7.57
	c0.42-0.64,0.42-1.22,0.42-1.45c0-0.04,0-0.08,0-0.08C178.5,114.11,178.5,114.18,178.18,114.35z"/>
<ellipse class="st1" cx="159.26" cy="115.16" rx="4.26" ry="4.16"/>
</svg>
