<?xml version="1.0" encoding="utf-8"?>
<!-- Generator: Adobe Illustrator 24.0.2, SVG Export Plug-In . SVG Version: 6.00 Build 0)  -->
<svg version="1.1" id="Capa_1" xmlns="http://www.w3.org/2000/svg" xmlns:xlink="http://www.w3.org/1999/xlink" x="0px" y="0px"
	 viewBox="0 0 300 300" style="enable-background:new 0 0 300 300;" xml:space="preserve">
<style type="text/css">
	.st0{fill:#FFFFFF;}
	.st1{fill:#00FFFF;}
</style>
<rect x="140" y="139" class="st0" width="45" height="30"/>
<path class="st1" d="M200.88,140.02c0-12.98-7.86-23.51-17.55-23.51h-44.89c-9.7,0-17.56,10.53-17.56,23.51V168
	c0,12.99,7.86,23.51,17.56,23.51h44.89c9.7,0,17.55-10.53,17.55-23.51V140.02z M174.48,156.11l-20.13,13.34
	c-0.79,0.57-3.47-0.19-3.47-1.4v-27.38c0-1.22,2.7-1.98,3.49-1.38l19.27,14.04C174.45,153.95,175.3,155.51,174.48,156.11z"/>
</svg>
