<?xml version="1.0" encoding="utf-8"?>
<!-- Generator: Adobe Illustrator 24.0.2, SVG Export Plug-In . SVG Version: 6.00 Build 0)  -->
<svg version="1.1" id="Capa_1" xmlns="http://www.w3.org/2000/svg" xmlns:xlink="http://www.w3.org/1999/xlink" x="0px" y="0px"
	 viewBox="0 0 300 300" style="enable-background:new 0 0 300 300;" xml:space="preserve">
<style type="text/css">
	.st0{fill:#00FFFF;}
	.st1{fill:#FFFFFF;}
	.st2{fill:#FFFF00;}
</style>
<path class="st0" d="M104.43,161.74v-38.15c0-11.51,9.42-20.93,20.93-20.93h38.15c11.51,0,20.93,9.42,20.93,20.93l0,38.15
	c0,11.51-9.42,20.93-20.93,20.93h-12.82l-6.72-1.64l-5.78,1.64l-12.82,0C113.85,182.66,104.43,173.25,104.43,161.74z"/>
<g>
	<path class="st1" d="M160,155.54l1.77-11.56h-11.09v-7.5c0-3.16,1.55-6.25,6.52-6.25h5.04v-9.84c0,0-4.58-0.78-8.95-0.78
		c-9.14,0-15.11,5.54-15.11,15.56v8.81h-10.16v11.56h10.16v27.12h12.5v-27.12H160z"/>
</g>
<ellipse class="st2" cx="144" cy="149.5" rx="3" ry="2.5"/>
</svg>
